# Blender v2.80 (sub 75) OBJ File: ''
# www.blender.org
mtllib room_lvl.mtl
o Cube_Cube.001
v -2.500000 -1.350000 -3.000000
v -2.500000 1.350001 -3.000000
v -2.500000 0.794858 -2.345187
v -2.500000 -0.634316 -2.345187
v 2.500000 -1.350000 -3.000000
v 2.500000 1.350001 -3.000000
v 2.500000 -1.350001 3.000000
v 2.500000 1.350000 3.000000
v -2.500000 -1.350001 3.000000
v -2.500000 1.350000 3.000000
v -2.500000 -1.350000 -0.000000
v -2.500000 1.350000 0.000000
v -2.500000 0.810393 0.656964
v -2.500000 -0.649852 0.656964
v -2.500000 -0.634316 -0.654813
v -2.500000 0.794858 -0.654813
v -2.500000 -0.649852 2.343036
v -2.500000 0.810393 2.343036
vt 0.269696 0.005543
vt 0.269696 0.128262
vt 0.239934 0.103030
vt 0.239934 0.038072
vt 0.496953 0.005543
vt 0.496953 0.128261
vt 0.769661 0.005543
vt 0.769661 0.128262
vt 0.996918 0.005543
vt 0.996918 0.128262
vt 0.133342 0.005543
vt 0.133342 0.128262
vt 0.103482 0.103736
vt 0.103482 0.037365
vt 0.163104 0.038072
vt 0.163104 0.103030
vt -0.003012 0.128262
vt -0.003012 0.005543
vt 0.026848 0.037366
vt 0.026848 0.103736
vn 1.0000 0.0000 0.0000
vn 0.0000 -0.0000 1.0000
vn -1.0000 0.0000 0.0000
vn 0.0000 0.0000 -1.0000
usemtl None
s 1
f 1/1/1 2/2/1 3/3/1 4/4/1
f 1/1/2 5/5/2 6/6/2 2/2/2
f 5/5/3 7/7/3 8/8/3 6/6/3
f 7/7/4 9/9/4 10/10/4 8/8/4
f 11/11/1 12/12/1 13/13/1 14/14/1
f 12/12/1 11/11/1 15/15/1 16/16/1
f 11/11/1 1/1/1 4/4/1 15/15/1
f 2/2/1 12/12/1 16/16/1 3/3/1
f 10/17/1 9/18/1 17/19/1 18/20/1
f 12/12/1 10/17/1 18/20/1 13/13/1
f 9/18/1 11/11/1 14/14/1 17/19/1
o Cube.001_Cube.002
v 2.500000 1.350001 -3.000000
v 2.500000 1.350000 3.000000
v -2.500000 1.350000 3.000000
v -2.500000 1.350001 -3.000000
vt 0.995684 0.000091
vt 0.995684 0.999909
vt 0.000091 0.999909
vt 0.000091 0.000091
vn 0.0000 -1.0000 -0.0000
usemtl None
s 1
f 19/21/5 20/22/5 21/23/5 22/24/5
o Cube.002_Cube.003
v -2.500000 -1.350000 -3.000000
v -2.500000 -1.350001 3.000000
v 2.500000 -1.350001 3.000000
v 2.500000 -1.350000 -3.000000
vt 0.000091 0.999909
vt 0.000091 0.000091
vt 0.998145 0.000091
vt 0.998145 0.999909
vn 0.0000 1.0000 0.0000
usemtl None
s 1
f 23/25/6 24/26/6 25/27/6 26/28/6
