# Blender v2.80 (sub 75) OBJ File: ''
# www.blender.org
mtllib 10318_Steak_Knife_v1_Iterations-2.mtl
o 10318_Steak_Knife_v1_Iterations-2
v -3.079000 -0.839000 0.149100
v -1.896300 -0.889300 0.149100
v -1.896300 -0.889300 0.163100
v -3.079000 -0.839000 0.163100
v -1.899100 -0.070600 0.206900
v -3.079000 -0.048700 0.206700
v -3.079000 -0.705000 0.178500
v -1.896800 -0.750500 0.178600
v -1.899700 0.684400 0.111800
v -3.079000 0.685800 0.112000
v -3.079000 0.685800 0.200300
v -1.899700 0.684400 0.200400
v 7.933400 -0.084400 0.084400
v 7.971200 0.346300 0.103300
v 7.971200 0.346300 0.208900
v 7.933400 -0.084400 0.227800
v -7.974900 0.529300 0.144100
v -7.939100 0.339600 0.150000
v -7.939100 0.339600 0.162200
v -7.974900 0.529300 0.168100
v -1.059100 0.684400 0.111800
v -1.059100 0.684400 0.200400
v -1.076700 -0.709900 0.180700
v -1.094500 -0.050500 0.207500
v -1.071300 -0.848100 0.147500
v -1.071300 -0.848100 0.164700
v -0.639500 0.688100 0.111200
v -0.639500 0.688100 0.201000
v -0.626600 0.228100 0.222300
v -0.872700 0.027100 0.213000
v -0.832300 -0.550400 0.192400
v -0.615800 -0.176100 0.207100
v -0.817600 -0.671100 0.138800
v -0.612100 -0.265600 0.128400
v -0.612100 -0.265600 0.183800
v -0.817600 -0.671100 0.173400
v -0.271900 0.706800 0.100900
v -0.271900 0.706800 0.211400
v -0.280500 0.333500 0.242100
v -0.287900 0.010700 0.226900
v -0.289600 -0.061000 0.113900
v -0.289600 -0.061000 0.198300
v 0.090800 0.727000 0.066200
v 0.090800 0.727000 0.246000
v 0.083800 0.350100 0.292900
v 0.077700 0.024300 0.275800
v 0.076400 -0.047000 0.081300
v 0.076400 -0.047000 0.230900
v 1.082300 0.760600 0.058500
v 1.082300 0.760600 0.253700
v 1.093900 0.365300 0.297600
v 1.104000 0.023200 0.300900
v 1.106100 -0.051200 0.061500
v 1.106100 -0.051200 0.250700
v -4.529300 -0.702200 0.149300
v -4.529300 -0.702200 0.162900
v -4.529300 0.024100 0.205500
v -4.529300 -0.578300 0.178000
v -4.529300 0.699000 0.113100
v -4.529300 0.699000 0.199200
v -5.968500 -0.471500 0.149800
v -5.968500 -0.471500 0.162400
v -5.968500 0.154700 0.202200
v -5.968500 -0.363400 0.176600
v -5.968500 0.736400 0.116000
v -5.968500 0.736400 0.196200
v -7.015200 -0.213700 0.150200
v -7.015200 -0.213700 0.162000
v -7.015200 0.293200 0.197500
v -7.015200 -0.124200 0.174900
v -7.015200 0.763800 0.120100
v -7.015200 0.763800 0.192100
v -7.680400 0.085000 0.150800
v -7.680400 0.085000 0.161400
v -7.678900 0.434600 0.188900
v -7.679000 0.149300 0.172500
v -7.676800 0.760100 0.127900
v -7.676800 0.760100 0.184300
v 3.418200 0.811800 0.058500
v 3.418200 0.811800 0.253700
v 3.444600 -0.083000 0.058500
v 3.444600 -0.083000 0.253700
v 3.434600 0.376100 0.284800
v 3.443000 -0.001900 0.301800
v 7.089500 0.875000 0.062500
v 7.089500 0.875000 0.249700
v 7.101800 -0.186600 0.062500
v 7.101800 -0.186600 0.249700
v 7.113100 0.358300 0.276800
v 7.103500 -0.092500 0.295900
v -7.923200 0.685700 0.135600
v -7.923200 0.685700 0.176600
v 7.936900 0.759000 0.084500
v 7.936900 0.759000 0.227700
v -7.913700 0.343500 0.171100
v -7.931800 0.514900 0.180700
v 7.945000 0.347600 0.250600
v 7.920700 -0.038100 0.270100
v -4.529300 0.586800 0.224000
v -3.079000 0.564500 0.225800
v -1.899700 0.560200 0.226000
v -1.025400 0.547600 0.226500
v -0.637400 0.608800 0.228900
v -0.273400 0.640600 0.244100
v 0.089600 0.660200 0.295500
v 1.084400 0.691100 0.304900
v 3.421300 0.736000 0.301800
v -5.968500 0.638600 0.219400
v -7.015200 0.683000 0.212900
v -7.675900 0.701900 0.200700
v -7.900700 0.665300 0.190900
v 7.093400 0.787400 0.295800
v 7.922400 0.717600 0.269800
v -1.899100 -0.070600 0.105300
v -1.896800 -0.750500 0.133600
v -3.079000 -0.705000 0.133700
v -3.079000 -0.048700 0.105500
v -1.094500 -0.050500 0.104700
v -1.076700 -0.709900 0.131500
v -0.626600 0.228100 0.089900
v -0.615800 -0.176100 0.105100
v -0.832300 -0.550400 0.119800
v -0.872700 0.027100 0.099200
v -0.280500 0.333500 0.070100
v -0.287900 0.010700 0.085300
v 0.083800 0.350100 0.019300
v 0.077700 0.024300 0.036400
v 1.093900 0.365300 0.014600
v 1.104000 0.023200 0.011300
v -4.529300 -0.578300 0.134200
v -4.529300 0.024100 0.106700
v -5.968500 -0.363400 0.135600
v -5.968500 0.154700 0.110000
v -7.015200 -0.124200 0.137300
v -7.015200 0.293200 0.114700
v -7.679000 0.149300 0.139700
v -7.678900 0.434600 0.123300
v 3.434600 0.376100 0.027400
v 3.443000 -0.001900 0.010400
v 7.113100 0.358300 0.035400
v 7.103500 -0.092500 0.016300
v -7.913700 0.343500 0.141100
v -7.931800 0.514900 0.131500
v 7.945000 0.347600 0.061600
v 7.920700 -0.038100 0.042100
v -3.079000 0.564500 0.086400
v -4.529300 0.586800 0.088200
v -1.899700 0.560200 0.086200
v -1.025400 0.547600 0.085700
v -0.637400 0.608800 0.083300
v -0.273400 0.640600 0.068100
v 0.089600 0.660200 0.016700
v 1.084400 0.691100 0.007300
v 3.421300 0.736000 0.010400
v -5.968500 0.638600 0.092800
v -7.015200 0.683000 0.099300
v -7.675900 0.701900 0.111500
v -7.900700 0.665300 0.121300
v 7.093400 0.787400 0.016400
v 7.922400 0.717600 0.042400
vt 0.060300 0.616400
vt 0.059400 0.686700
vt 0.251900 0.701200
vt 0.259400 0.630300
vt 0.153200 0.695000
vt 0.158600 0.695200
vt 0.153000 0.782800
vt 0.147600 0.782600
vt 0.161300 0.522900
vt 0.168600 0.523100
vt 0.167600 0.546100
vt 0.161400 0.545900
vt 0.163100 0.623600
vt 0.172000 0.624200
vt 0.167300 0.695700
vt 0.068200 0.690200
vt 0.069600 0.619400
vt 0.110500 0.621400
vt 0.107600 0.692500
vt 0.238800 0.788000
vt 0.220700 0.873800
vt 0.214000 0.873300
vt 0.231100 0.787400
vt 0.112800 0.025000
vt 0.192900 0.024800
vt 0.167900 0.028500
vt 0.141100 0.025500
vt 0.065000 0.562400
vt 0.260400 0.580500
vt 0.251300 0.563700
vt 0.073300 0.555700
vt 0.161100 0.783300
vt 0.219000 0.028500
vt 0.215200 0.030600
vt 0.192900 0.028300
vt 0.157500 0.623400
vt 0.176500 0.570700
vt 0.208700 0.563400
vt 0.212200 0.577800
vt 0.108200 0.988900
vt 0.165300 0.990000
vt 0.181600 0.975200
vt 0.093800 0.974300
vt 0.119100 0.559800
vt 0.150300 0.569800
vt 0.114000 0.573000
vt 0.153700 0.991500
vt 0.154800 0.988600
vt 0.165200 0.988200
vt 0.082400 0.029100
vt 0.127700 0.985800
vt 0.130900 0.972400
vt 0.136200 0.972800
vt 0.141800 0.990600
vt 0.074200 0.570600
vt 0.261300 0.627900
vt 0.262400 0.573000
vt 0.160300 0.572100
vt 0.148500 0.623100
vt 0.119100 0.990400
vt 0.210000 0.626800
vt 0.204200 0.698000
vt 0.239200 0.030900
vt 0.228100 0.020800
vt 0.089600 0.030700
vt 0.088400 0.080300
vt 0.228700 0.546800
vt 0.106800 0.544400
vt 0.084300 0.556600
vt 0.256500 0.563300
vt 0.201900 0.936100
vt 0.196400 0.935600
vt 0.166300 0.572200
vt 0.154500 0.545700
vt 0.144400 0.987500
vt 0.129700 0.989000
vt 0.154000 0.870000
vt 0.147000 0.869600
vt 0.174800 0.523400
vt 0.174500 0.546200
vt 0.117100 0.524700
vt 0.136500 0.523800
vt 0.131200 0.545000
vt 0.158200 0.440200
vt 0.169600 0.440600
vt 0.170100 0.500500
vt 0.159900 0.500200
vt 0.229100 0.547500
vt 0.243500 0.564100
vt 0.222700 0.547900
vt 0.176100 0.500800
vt 0.116200 0.502400
vt 0.135600 0.501200
vt 0.155200 0.522900
vt 0.104400 0.546100
vt 0.111700 0.440600
vt 0.132200 0.440200
vt 0.112000 0.509700
vt 0.219800 0.502900
vt 0.223000 0.440500
vt 0.107200 0.451100
vt 0.154900 0.299500
vt 0.166300 0.300400
vt 0.219700 0.525900
vt 0.213700 0.526000
vt 0.102900 0.300000
vt 0.125800 0.299400
vt 0.224200 0.523700
vt 0.153700 0.500100
vt 0.068100 0.869100
vt 0.060800 0.776800
vt 0.213600 0.502800
vt 0.069500 0.777600
vt 0.105600 0.780000
vt 0.106200 0.867100
vt 0.075200 0.864900
vt 0.151600 0.440000
vt 0.118400 0.987000
vt 0.114800 0.971300
vt 0.215900 0.440600
vt 0.077700 0.931600
vt 0.144500 0.694600
vt 0.139500 0.782300
vt 0.109300 0.930700
vt 0.084300 0.928900
vt 0.226500 0.079500
vt 0.078300 0.036500
vt 0.135200 0.869200
vt 0.097600 0.970000
vt 0.132600 0.932400
vt 0.108100 0.985100
vt 0.153200 0.993700
vt 0.164600 0.992500
vt 0.099800 0.325800
vt 0.225300 0.299500
vt 0.147500 0.299200
vt 0.159100 0.020800
vt 0.135100 0.028200
vt 0.112700 0.028000
vt 0.192500 0.016900
vt 0.217700 0.299800
vt 0.181300 0.979900
vt 0.161100 0.080300
vt 0.168200 0.080800
vt 0.173600 0.300800
vt 0.219100 0.080200
vt 0.177700 0.974700
vt 0.150300 0.077800
vt 0.141400 0.078100
vt 0.193800 0.524900
vt 0.194300 0.501900
vt 0.114600 0.523500
vt 0.243600 0.700600
vt 0.250700 0.629600
vt 0.140500 0.972400
vt 0.251800 0.580100
vt 0.195000 0.785200
vt 0.138300 0.932700
vt 0.142500 0.932700
vt 0.115500 0.078400
vt 0.142100 0.869500
vt 0.146100 0.986000
vt 0.144700 0.972400
vt 0.160600 0.973600
vt 0.171500 0.934200
vt 0.176300 0.440800
vt 0.239500 0.324800
vt 0.240800 0.788000
vt 0.253700 0.698300
vt 0.182900 0.871500
vt 0.221300 0.878800
vt 0.203200 0.939600
vt 0.148200 0.932900
vt 0.198100 0.546900
vt 0.195500 0.440800
vt 0.195100 0.300100
vt 0.193000 0.079100
vt 0.171400 0.030600
vt 0.230300 0.510900
vt 0.237400 0.451500
vn 0.0021 -0.7486 0.6631
vn -0.0512 -0.7487 0.6609
vn -0.0512 -0.7488 -0.6608
vn 0.0019 -0.7486 -0.6631
vn -0.0081 0.7763 0.6303
vn -0.0075 0.7764 -0.6301
vn 0.0133 0.7859 -0.6183
vn 0.0132 0.7858 0.6183
vn -0.0855 0.8610 0.5014
vn -0.0856 0.8611 -0.5012
vn -0.0332 0.8104 -0.5849
vn -0.0333 0.8102 0.5852
vn -0.0103 0.7742 -0.6328
vn 0.0001 0.0828 -0.9966
vn -0.0029 0.0884 -0.9961
vn -0.0051 -0.0779 0.9969
vn -0.0007 -0.0766 0.9971
vn -0.0006 -0.0363 0.9993
vn -0.0019 -0.0373 0.9993
vn -0.0960 -0.7547 -0.6491
vn -0.1601 -0.7441 -0.6486
vn -0.0169 -0.0918 -0.9956
vn -0.0108 -0.0862 -0.9962
vn 0.9753 0.0029 0.2209
vn 0.9752 0.0029 -0.2212
vn 0.6639 0.6266 -0.4082
vn 0.6619 0.6284 0.4087
vn 0.2420 -0.7637 0.5984
vn 0.2442 -0.7638 -0.5974
vn 0.5822 -0.5543 -0.5948
vn 0.5823 -0.5543 0.5947
vn -0.0003 0.0891 -0.9960
vn 0.6579 -0.6284 -0.4151
vn 0.4624 -0.1939 -0.8652
vn 0.5598 -0.0103 -0.8286
vn 0.0009 0.7810 0.6245
vn -0.0048 0.0909 -0.9958
vn -0.0114 -0.0330 -0.9994
vn -0.0081 -0.0357 -0.9993
vn -0.7517 -0.3693 0.5465
vn -0.7532 -0.3695 -0.5443
vn -0.4346 -0.6758 -0.5953
vn -0.4381 -0.6769 0.5915
vn -0.0115 -0.0337 0.9994
vn -0.0073 0.0942 0.9955
vn -0.0083 -0.0359 0.9993
vn -0.8486 0.0296 -0.5282
vn -0.2043 -0.0460 -0.9778
vn -0.1693 -0.1257 -0.9775
vn 0.6659 -0.6314 0.3974
vn -0.1761 0.1195 0.9771
vn -0.0446 0.1385 0.9894
vn -0.1324 0.8028 0.5813
vn -0.5921 0.6075 0.5295
vn 0.0122 -0.0884 0.9960
vn -0.0194 0.7783 0.6276
vn -0.0025 0.0852 0.9964
vn -0.8523 0.0413 0.5214
vn -0.0006 -0.0363 -0.9993
vn -0.0019 -0.0373 -0.9993
vn 0.0463 -0.8664 0.4972
vn 0.4663 -0.1942 0.8630
vn 0.0263 -0.2495 0.9680
vn 0.5518 -0.5236 0.6491
vn 0.0582 -0.1402 0.9884
vn 0.1105 -0.1065 0.9882
vn -0.2596 -0.7306 -0.6315
vn -0.0345 -0.1036 -0.9940
vn -0.0196 0.7762 -0.6302
vn -0.0344 0.1471 0.9885
vn -0.6218 0.5808 -0.5254
vn -0.0015 0.0953 -0.9954
vn 0.0301 0.7838 -0.6203
vn -0.0940 0.2285 -0.9690
vn -0.0391 0.1509 -0.9878
vn -0.0437 -0.1968 0.9795
vn -0.0891 -0.0251 0.9957
vn -0.0257 -0.0296 0.9992
vn -0.0261 0.8916 0.4521
vn -0.0261 0.8916 -0.4521
vn -0.0610 0.8775 -0.4757
vn -0.0610 0.8771 0.4764
vn 0.5563 -0.5336 -0.6370
vn 0.1014 -0.1027 -0.9895
vn 0.0563 -0.1370 -0.9890
vn -0.0735 0.2825 -0.9565
vn -0.0619 -0.2712 0.9605
vn -0.0687 -0.0225 0.9974
vn -0.0939 0.2289 0.9689
vn -0.0102 -0.2732 0.9619
vn -0.0031 -0.0105 0.9999
vn -0.0110 -0.8592 0.5116
vn -0.0112 -0.8587 -0.5124
vn -0.0127 -0.8792 -0.4762
vn -0.0127 -0.8792 0.4762
vn -0.0163 0.8786 0.4773
vn -0.0163 0.8786 -0.4773
vn 0.1808 -0.7827 -0.5955
vn -0.0476 -0.1966 -0.9793
vn -0.0035 -0.2373 0.9714
vn 0.0028 -0.0025 1.0000
vn 0.1763 -0.7791 0.6016
vn -0.0734 0.2902 0.9541
vn -0.1484 -0.7388 0.6573
vn -0.0862 -0.7503 0.6554
vn -0.0655 -0.2693 -0.9608
vn -0.0125 -0.0845 0.9963
vn -0.0045 -0.0395 0.9992
vn -0.0083 -0.0426 0.9991
vn -0.0184 -0.0893 0.9958
vn -0.0060 0.2924 0.9563
vn -0.2038 -0.0387 0.9782
vn -0.0360 -0.0512 0.9980
vn -0.0153 -0.2785 -0.9603
vn -0.2466 -0.7268 0.6411
vn 0.0024 0.0880 0.9961
vn -0.0032 0.0917 0.9958
vn -0.0169 -0.0465 0.9988
vn -0.0359 -0.0996 0.9944
vn 0.0507 -0.8705 -0.4896
vn -0.0045 0.0981 0.9952
vn -0.0934 -0.1258 0.9877
vn -0.0128 0.1061 0.9943
vn -0.1750 -0.1235 0.9768
vn -0.0102 -0.8666 0.4989
vn -0.0102 -0.8666 -0.4988
vn -0.0031 0.2514 0.9679
vn 0.4592 0.2072 0.8638
vn 0.5676 -0.0010 0.8233
vn -0.0093 -0.2431 -0.9700
vn 0.0497 0.8755 -0.4806
vn 0.0290 0.2578 -0.9658
vn -0.0094 0.2573 -0.9663
vn 0.0215 -0.2464 -0.9689
vn -0.0996 -0.1321 -0.9862
vn 0.0580 0.8741 0.4822
vn 0.0257 0.2632 0.9644
vn -0.0906 -0.0241 -0.9956
vn -0.0688 -0.0226 -0.9974
vn -0.0034 -0.0799 -0.9968
vn -0.0019 -0.0783 -0.9969
vn -0.1438 0.8121 -0.5655
vn 0.0146 -0.0906 -0.9958
vn -0.0045 -0.0395 -0.9992
vn -0.0095 0.7920 0.6105
vn -0.0095 0.7921 -0.6104
vn 0.0155 -0.0008 0.9999
vn 0.0079 0.7845 0.6201
vn -0.1764 0.1195 -0.9770
vn -0.0448 0.1391 -0.9893
vn -0.0353 -0.0511 -0.9981
vn -0.0169 -0.0465 -0.9988
vn -0.0107 0.2881 -0.9575
vn -0.0083 -0.0426 -0.9991
vn -0.0094 0.1030 -0.9946
vn -0.0251 -0.0295 -0.9993
vn -0.0031 -0.0105 -0.9999
vn 0.0028 -0.0025 -1.0000
vn 0.0154 -0.0008 -0.9999
vn 0.4582 0.2039 -0.8652
usemtl _10318_Steak_Knife_v1_max0810318_Steak_Knife
s 1
f 3/1/1 4/2/2 1/3/3 2/4/4
f 11/5/5 10/6/6 59/7/7 60/8/8
f 38/9/9 37/10/10 27/11/11 28/12/12
f 10/6/6 9/13/13 148/14/14 146/15/15
f 7/16/16 8/17/17 5/18/18 6/19/19
f 55/20/20 61/21/21 132/22/22 130/23/23
f 15/24/24 14/25/25 93/26/26 94/27/27
f 26/28/28 25/29/29 33/30/30 36/31/31
f 59/7/7 10/6/6 146/15/15 147/32/32
f 14/25/25 13/33/33 145/34/34 144/35/35
f 11/5/5 12/36/36 9/13/13 10/6/6
f 149/37/37 123/38/38 118/39/39
f 19/40/40 18/41/41 73/42/42 74/43/43
f 30/44/44 102/45/45 24/46/46
f 18/41/41 17/47/47 143/48/48 142/49/49
f 15/24/24 16/50/50 13/33/33 14/25/25
f 3/1/1 2/4/4 25/29/29 26/28/28
f 111/51/51 110/52/52 78/53/53 92/54/54
f 23/55/55 8/17/17 3/56/1 26/57/28
f 102/45/45 22/58/56 12/36/36 101/59/57
f 19/40/40 20/60/58 17/47/47 18/41/41
f 148/14/14 114/61/59 117/62/60 146/15/15
f 88/63/61 16/64/50 98/65/62 90/66/63
f 101/59/57 5/18/18 24/46/46 102/45/45
f 35/67/64 32/68/65 31/69/66 36/70/31
f 61/21/21 67/71/67 134/72/68 132/22/22
f 9/13/13 21/73/69 149/37/37 148/14/14
f 103/74/70 28/12/12 22/58/56 102/45/45
f 91/75/71 17/47/47 20/60/58 92/76/54
f 155/77/72 65/78/73 59/7/7 147/32/32
f 27/11/11 37/10/10 151/79/74 150/80/75
f 40/81/76 39/82/77 29/83/78 32/68/65
f 50/84/79 49/85/80 43/86/81 44/87/82
f 34/88/83 33/30/30 122/89/84 121/90/85
f 31/69/66 32/68/65 29/83/78 30/44/44
f 37/10/10 43/86/81 152/91/86 151/79/74
f 46/92/87 45/93/88 39/82/77 40/81/76
f 104/94/89 38/9/9 28/12/12 103/74/70
f 35/95/64 36/31/31 33/30/30 34/88/83
f 52/96/90 51/97/91 45/93/88 46/92/87
f 48/98/92 47/99/93 53/100/94 54/101/95
f 29/83/78 39/82/77 104/94/89 103/74/70
f 80/102/96 79/103/97 49/85/80 50/84/79
f 41/104/98 34/88/83 121/90/85 125/105/99
f 84/106/100 83/107/101 51/97/91 52/96/90
f 40/81/76 32/68/65 35/67/64 42/108/102
f 39/82/77 45/93/88 105/109/103 104/94/89
f 62/110/104 61/21/21 55/20/20 56/111/105
f 47/99/93 41/104/98 125/105/99 127/112/106
f 58/113/107 57/114/108 63/115/109 64/116/110
f 45/93/88 51/97/91 106/117/111 105/109/103
f 96/118/112 75/119/113 110/52/52 111/51/51
f 53/100/94 47/99/93 127/112/106 129/120/114
f 68/121/115 67/71/67 61/21/21 62/110/104
f 57/114/108 6/19/19 100/122/116 99/123/117
f 64/116/110 63/115/109 69/124/118 70/125/119
f 87/126/120 13/33/33 16/50/50 88/127/61
f 63/115/109 57/114/108 99/123/117 108/128/121
f 76/129/122 70/125/119 69/124/118 75/119/113
f 44/87/82 43/86/81 37/10/10 38/9/9
f 69/124/118 63/115/109 108/128/121 109/130/123
f 76/129/122 75/119/113 96/118/112 95/131/124
f 96/118/112 20/132/58 19/133/40 95/131/124
f 75/119/113 69/124/118 109/130/123 110/52/52
f 82/134/125 81/135/126 87/126/120 88/127/61
f 107/136/127 80/102/96 50/84/79 106/117/111
f 94/137/27 113/138/128 97/139/129 15/140/24
f 81/135/126 53/100/94 129/120/114 139/141/130
f 19/133/40 74/142/43 76/129/122 95/131/124
f 79/103/97 85/143/131 159/144/132 154/145/133
f 87/126/120 81/135/126 139/141/130 141/146/134
f 73/42/42 18/41/41 142/49/49 136/147/135
f 13/33/33 87/126/120 141/146/134 145/34/34
f 113/138/128 94/137/27 86/148/136 112/149/137
f 23/55/55 24/46/46 5/18/18 8/17/17
f 24/46/46 23/55/55 31/69/66 30/44/44
f 125/105/99 124/150/138 126/151/139 127/112/106
f 74/43/43 73/42/42 67/71/67 68/121/115
f 42/152/102 41/104/98 47/99/93 48/98/92
f 2/4/4 1/3/3 116/153/140 115/154/141
f 78/53/53 77/155/142 91/75/71 92/76/54
f 122/89/84 33/30/30 25/29/29 119/156/143
f 130/23/23 131/157/144 117/62/60 116/153/140
f 72/158/145 71/159/146 77/155/142 78/53/53
f 54/101/95 53/100/94 81/135/126 82/134/125
f 90/66/63 89/160/147 83/107/101 84/106/100
f 66/161/148 65/78/73 71/159/146 72/158/145
f 158/162/149 91/75/71 77/155/142 157/163/150
f 136/147/135 137/164/151 135/165/152 134/72/68
f 86/148/136 85/143/131 79/103/97 80/102/96
f 98/65/62 97/139/129 89/160/147 90/66/63
f 23/55/55 26/57/28 36/70/31 31/69/66
f 94/27/27 93/26/26 85/143/131 86/148/136
f 118/39/39 114/61/59 148/14/14 149/37/37
f 111/51/51 92/54/54 20/132/58 96/118/112
f 123/38/38 122/89/84 119/156/143 118/39/39
f 115/154/141 114/61/59 118/39/39 119/156/143
f 43/86/81 49/85/80 153/166/153 152/91/86
f 97/139/129 98/65/62 16/64/50 15/140/24
f 90/66/63 84/106/100 82/167/125 88/63/61
f 56/168/105 4/169/2 7/16/16 58/113/107
f 106/117/111 50/84/79 44/87/82 105/109/103
f 155/77/72 147/32/32 131/157/144 133/170/154
f 105/109/103 44/87/82 38/9/9 104/94/89
f 62/171/104 56/168/105 58/113/107 64/116/110
f 35/95/64 34/88/83 41/104/98 42/152/102
f 68/172/115 62/171/104 64/116/110 70/125/119
f 156/173/155 71/159/146 65/78/73 155/77/72
f 74/142/43 68/172/115 70/125/119 76/129/122
f 157/163/150 77/155/142 71/159/146 156/173/155
f 17/47/47 91/75/71 158/162/149 143/48/48
f 89/160/147 97/139/129 113/138/128 112/149/137
f 116/153/140 117/62/60 114/61/59 115/154/141
f 121/90/85 120/174/156 124/150/138 125/105/99
f 127/112/106 126/151/139 128/175/157 129/120/114
f 122/89/84 123/38/38 120/174/156 121/90/85
f 134/72/68 135/165/152 133/170/154 132/22/22
f 129/120/114 128/175/157 138/176/158 139/141/130
f 151/79/74 152/91/86 126/151/139 124/150/138
f 152/91/86 153/166/153 128/175/157 126/151/139
f 147/32/32 146/15/15 117/62/60 131/157/144
f 156/173/155 155/77/72 133/170/154 135/165/152
f 150/80/75 151/79/74 124/150/138 120/174/156
f 139/141/130 138/176/158 140/177/159 141/146/134
f 157/163/150 156/173/155 135/165/152 137/164/151
f 28/12/12 27/11/11 21/73/69 22/58/56
f 141/146/134 140/177/159 144/35/35 145/34/34
f 153/166/153 154/145/133 138/176/158 128/175/157
f 154/145/133 159/144/132 140/177/159 138/176/158
f 137/164/151 143/48/48 158/162/149 157/163/150
f 159/144/132 160/178/160 144/35/35 140/177/159
f 108/128/121 99/123/117 60/8/8 66/161/148
f 30/44/44 29/83/78 103/74/70 102/45/45
f 99/123/117 100/122/116 11/5/5 60/8/8
f 67/71/67 73/42/42 136/147/135 134/72/68
f 25/29/29 2/4/4 115/154/141 119/156/143
f 160/178/160 93/26/26 14/25/25 144/35/35
f 46/92/87 40/81/76 42/108/102 48/179/92
f 132/22/22 133/170/154 131/157/144 130/23/23
f 52/96/90 46/92/87 48/179/92 54/180/95
f 1/3/3 55/20/20 130/23/23 116/153/140
f 51/97/91 83/107/101 107/136/127 106/117/111
f 112/149/137 86/148/136 80/102/96 107/136/127
f 83/107/101 89/160/147 112/149/137 107/136/127
f 109/130/123 108/128/121 66/161/148 72/158/145
f 49/85/80 79/103/97 154/145/133 153/166/153
f 56/111/105 55/20/20 1/3/3 4/2/2
f 110/52/52 109/130/123 72/158/145 78/53/53
f 84/106/100 52/96/90 54/180/95 82/167/125
f 85/143/131 93/26/26 160/178/160 159/144/132
f 8/17/17 7/16/16 4/169/2 3/56/1
f 7/16/16 6/19/19 57/114/108 58/113/107
f 149/37/37 150/80/75 120/174/156 123/38/38
f 6/19/19 5/18/18 101/59/57 100/122/116
f 142/49/49 143/48/48 137/164/151 136/147/135
f 60/8/8 59/7/7 65/78/73 66/161/148
f 100/122/116 101/59/57 12/36/36 11/5/5
f 21/73/69 27/11/11 150/80/75 149/37/37
f 22/58/56 21/73/69 9/13/13 12/36/36
